<svg width="40" height="40" viewBox="0 0 40 40" fill="none" xmlns="http://www.w3.org/2000/svg">
<rect x="40" y="40" width="40" height="40" rx="6" transform="rotate(180 40 40)" fill="#42BFE8"/>
<g filter="url(#filter0_d_0_92)">
<path d="M30.12 11.9458C27.696 9.99783 23.863 9.66783 23.701 9.65383C23.445 9.63183 23.202 9.77683 23.097 10.0108C23.093 10.0188 22.879 10.6398 22.672 11.2388C25.489 11.7318 27.403 12.8258 27.505 12.8858C27.983 13.1638 28.143 13.7768 27.864 14.2538C27.679 14.5718 27.344 14.7498 27 14.7498C26.829 14.7498 26.657 14.7068 26.499 14.6148C26.471 14.5978 23.663 12.9998 20.002 12.9998C16.34 12.9998 13.531 14.5988 13.503 14.6148C13.026 14.8918 12.414 14.7288 12.137 14.2508C11.86 13.7748 12.021 13.1638 12.497 12.8858C12.599 12.8258 14.52 11.7278 17.345 11.2358C17.127 10.6298 16.907 10.0188 16.903 10.0108C16.798 9.77583 16.555 9.62783 16.299 9.65383C16.137 9.66683 12.304 9.99683 9.848 11.9718C8.564 13.1578 6 20.0918 6 26.0868C6 26.1928 6.027 26.2958 6.08 26.3878C7.851 29.4978 12.679 30.3118 13.779 30.3468C13.786 30.3478 13.792 30.3478 13.798 30.3478C13.992 30.3478 14.175 30.2548 14.29 30.0978L15.48 28.4858C12.87 27.8568 11.49 26.8678 11.407 26.8068C10.963 26.4798 10.867 25.8538 11.194 25.4088C11.52 24.9658 12.144 24.8678 12.588 25.1928C12.625 25.2168 15.172 26.9998 20 26.9998C24.847 26.9998 27.387 25.2098 27.412 25.1918C27.856 24.8698 28.482 24.9668 28.807 25.4128C29.131 25.8568 29.037 26.4788 28.595 26.8048C28.512 26.8658 27.139 27.8528 24.535 28.4818L25.71 30.0968C25.825 30.2548 26.008 30.3468 26.202 30.3468C26.209 30.3468 26.215 30.3468 26.221 30.3458C27.322 30.3108 32.15 29.4968 33.92 26.3868C33.973 26.2948 34 26.1918 34 26.0858C34 20.0918 31.436 13.1578 30.12 11.9458ZM16 23.9998C14.895 23.9998 14 22.8808 14 21.4998C14 20.1188 14.895 18.9998 16 18.9998C17.105 18.9998 18 20.1188 18 21.4998C18 22.8808 17.105 23.9998 16 23.9998ZM24 23.9998C22.895 23.9998 22 22.8808 22 21.4998C22 20.1188 22.895 18.9998 24 18.9998C25.105 18.9998 26 20.1188 26 21.4998C26 22.8808 25.105 23.9998 24 23.9998Z" fill="white"/>
</g>
<defs>
<filter id="filter0_d_0_92" x="3" y="9.65088" width="34" height="27.6969" filterUnits="userSpaceOnUse" color-interpolation-filters="sRGB">
<feFlood flood-opacity="0" result="BackgroundImageFix"/>
<feColorMatrix in="SourceAlpha" type="matrix" values="0 0 0 0 0 0 0 0 0 0 0 0 0 0 0 0 0 0 127 0" result="hardAlpha"/>
<feOffset dy="4"/>
<feGaussianBlur stdDeviation="1.5"/>
<feComposite in2="hardAlpha" operator="out"/>
<feColorMatrix type="matrix" values="0 0 0 0 0 0 0 0 0 0 0 0 0 0 0 0 0 0 0.13 0"/>
<feBlend mode="normal" in2="BackgroundImageFix" result="effect1_dropShadow_0_92"/>
<feBlend mode="normal" in="SourceGraphic" in2="effect1_dropShadow_0_92" result="shape"/>
</filter>
</defs>
</svg>
