<svg width="40" height="40" viewBox="0 0 40 40" fill="none" xmlns="http://www.w3.org/2000/svg">
<rect x="40" y="40" width="40" height="40" rx="6" transform="rotate(180 40 40)" fill="#42BFE8"/>
<g filter="url(#filter0_d_0_89)">
<path d="M29.8107 12.67L26.5099 28.2364C26.2609 29.335 25.6115 29.6084 24.6887 29.0908L19.6594 25.3848L17.2326 27.7188C16.964 27.9873 16.7394 28.2119 16.2219 28.2119L16.5832 23.0899L25.9045 14.667C26.3097 14.3057 25.8166 14.1055 25.2746 14.4668L13.7512 21.7227L8.79022 20.17C7.71112 19.833 7.69159 19.0908 9.01483 18.5733L28.4191 11.0977C29.3176 10.7608 30.1037 11.2979 29.8107 12.67Z" fill="white"/>
</g>
<defs>
<filter id="filter0_d_0_89" x="6" y="11" width="25.873" height="24.3436" filterUnits="userSpaceOnUse" color-interpolation-filters="sRGB">
<feFlood flood-opacity="0" result="BackgroundImageFix"/>
<feColorMatrix in="SourceAlpha" type="matrix" values="0 0 0 0 0 0 0 0 0 0 0 0 0 0 0 0 0 0 127 0" result="hardAlpha"/>
<feOffset dy="4"/>
<feGaussianBlur stdDeviation="1"/>
<feComposite in2="hardAlpha" operator="out"/>
<feColorMatrix type="matrix" values="0 0 0 0 0 0 0 0 0 0 0 0 0 0 0 0 0 0 0.18 0"/>
<feBlend mode="normal" in2="BackgroundImageFix" result="effect1_dropShadow_0_89"/>
<feBlend mode="normal" in="SourceGraphic" in2="effect1_dropShadow_0_89" result="shape"/>
</filter>
</defs>
</svg>
