<svg width="40" height="40" viewBox="0 0 40 40" fill="none" xmlns="http://www.w3.org/2000/svg">
<rect x="40" y="40" width="40" height="40" rx="6" transform="rotate(180 40 40)" fill="#42BFE8"/>
<g filter="url(#filter0_d_0_86)">
<path d="M29.4302 15.0603C29.446 15.2823 29.446 15.5044 29.446 15.7265C29.446 22.5 24.2906 30.3045 14.868 30.3045C11.9651 30.3045 9.26841 29.4638 7 28.0044C7.41245 28.052 7.80898 28.0679 8.2373 28.0679C10.6326 28.0679 12.8375 27.2589 14.5983 25.8788C12.3458 25.8312 10.4581 24.356 9.80771 22.3255C10.125 22.373 10.4422 22.4048 10.7754 22.4048C11.2354 22.4048 11.6955 22.3413 12.1237 22.2303C9.77603 21.7544 8.01519 19.6922 8.01519 17.2018V17.1383C8.69727 17.519 9.49048 17.757 10.3312 17.7887C8.95107 16.8686 8.04692 15.2982 8.04692 13.5215C8.04692 12.5698 8.30068 11.6973 8.74487 10.9359C11.2671 14.045 15.0583 16.0754 19.3096 16.2976C19.2303 15.9168 19.1827 15.5203 19.1827 15.1237C19.1827 12.3001 21.4669 10 24.3064 10C25.7816 10 27.1141 10.6187 28.05 11.618C29.208 11.3959 30.3184 10.9676 31.302 10.3807C30.9212 11.5705 30.1122 12.5698 29.0494 13.2043C30.0805 13.0933 31.0799 12.8077 31.9999 12.4112C31.302 13.4264 30.4295 14.3305 29.4302 15.0603Z" fill="white"/>
</g>
<defs>
<filter id="filter0_d_0_86" x="5" y="10" width="28.9999" height="26.3046" filterUnits="userSpaceOnUse" color-interpolation-filters="sRGB">
<feFlood flood-opacity="0" result="BackgroundImageFix"/>
<feColorMatrix in="SourceAlpha" type="matrix" values="0 0 0 0 0 0 0 0 0 0 0 0 0 0 0 0 0 0 127 0" result="hardAlpha"/>
<feOffset dy="4"/>
<feGaussianBlur stdDeviation="1"/>
<feComposite in2="hardAlpha" operator="out"/>
<feColorMatrix type="matrix" values="0 0 0 0 0 0 0 0 0 0 0 0 0 0 0 0 0 0 0.18 0"/>
<feBlend mode="normal" in2="BackgroundImageFix" result="effect1_dropShadow_0_86"/>
<feBlend mode="normal" in="SourceGraphic" in2="effect1_dropShadow_0_86" result="shape"/>
</filter>
</defs>
</svg>
